<mxfile host="app.diagrams.net" modified="2023-12-01T09:34:11.864Z" agent="Mozilla/5.0 (Windows NT 10.0; Win64; x64) AppleWebKit/537.36 (KHTML, like Gecko) Chrome/119.0.0.0 Safari/537.36" version="22.1.5" etag="tVO6lFCMkGoPRXlPJCRe" type="github">
  <diagram name="Page-1" id="nY_bA1Mb-mZGXa47FYcN">
    <mxGraphModel>
      <root>
        <mxCell id="0" />
        <mxCell id="1" parent="0" />
      </root>
    </mxGraphModel>
  </diagram>
</mxfile>
